<?xml version="1.0" encoding="UTF-8" standalone="no"?>
<!-- Created with Inkscape (http://www.inkscape.org/) -->

<svg
   xmlns:dc="http://purl.org/dc/elements/1.1/"
   xmlns:cc="http://creativecommons.org/ns#"
   xmlns:rdf="http://www.w3.org/1999/02/22-rdf-syntax-ns#"
   xmlns:svg="http://www.w3.org/2000/svg"
   xmlns="http://www.w3.org/2000/svg"
   xmlns:sodipodi="http://sodipodi.sourceforge.net/DTD/sodipodi-0.dtd"
   xmlns:inkscape="http://www.inkscape.org/namespaces/inkscape"
   width="166.9724mm"
   height="131.26976mm"
   viewBox="0 0 591.63448 465.12907"
   id="svg7544"
   version="1.1"
   inkscape:version="0.91 r13725"
   sodipodi:docname="Kabelsalat_Level2.svg"
   inkscape:export-filename="C:\Users\Simon Hochholzer\Documents\Studium\TUD\Bachelor Medieninformatik\4. Semester\Medienpsychologie und -didaktik\Projekt\design\sprites\minigames\licht_ausschalten\Kabelsalate\Level2\Kabelsalat_Level2.png"
   inkscape:export-xdpi="300"
   inkscape:export-ydpi="300">
  <defs
     id="defs7546" />
  <sodipodi:namedview
     id="base"
     pagecolor="#ffffff"
     bordercolor="#666666"
     borderopacity="1.0"
     inkscape:pageopacity="0.0"
     inkscape:pageshadow="2"
     inkscape:zoom="0.75195312"
     inkscape:cx="10.536704"
     inkscape:cy="166.64184"
     inkscape:document-units="px"
     inkscape:current-layer="layer1"
     showgrid="false"
     inkscape:window-width="1536"
     inkscape:window-height="803"
     inkscape:window-x="-8"
     inkscape:window-y="-8"
     inkscape:window-maximized="1"
     fit-margin-top="0"
     fit-margin-left="0"
     fit-margin-right="0"
     fit-margin-bottom="0" />
  <metadata
     id="metadata7549">
    <rdf:RDF>
      <cc:Work
         rdf:about="">
        <dc:format>image/svg+xml</dc:format>
        <dc:type
           rdf:resource="http://purl.org/dc/dcmitype/StillImage" />
        <dc:title></dc:title>
      </cc:Work>
    </rdf:RDF>
  </metadata>
  <g
     inkscape:label="Ebene 1"
     inkscape:groupmode="layer"
     id="layer1"
     transform="translate(-73.886671,-74.290565)">
    <g
       id="g7531"
       transform="translate(-27.70469,54.481192)"
       style="stroke:#000000;stroke-width:8;stroke-linecap:round;stroke-miterlimit:4;stroke-dasharray:none;stroke-opacity:1">
      <path
         sodipodi:nodetypes="csssssssssssssc"
         inkscape:connector-curvature="0"
         id="path7503"
         d="m 128.34976,47.817497 c 0,0 14.68661,113.122933 54.84861,146.262953 36.94843,30.48831 95.40022,36.3159 141.69223,23.99626 34.78126,-9.2563 51.5267,-51.872 83.41559,-68.56075 23.50221,-12.29966 50.98799,-28.76311 76.55951,-21.71091 26.75419,7.37836 66.68608,34.50467 57.13396,60.562 -12.92822,35.26698 -74.63199,16.54847 -111.98257,12.56947 -52.34017,-5.57586 -103.44478,-75.41498 -149.69098,-50.27788 -40.42091,21.97077 -56.65085,93.49238 -34.28038,133.69347 33.38904,60.00214 130.33497,79.92196 196.54083,61.70468 41.87388,-11.52206 43.54929,-100.55987 86.84363,-97.12774 31.59748,2.50488 61.60615,49.97206 51.42057,79.98755 -23.15241,68.22692 -131.3859,75.44669 -203.39691,73.13148 -43.98979,-1.41431 -94.54513,-87.6441 -121.12401,-52.56325 -28.77534,37.97991 122.26668,126.83739 122.26668,126.83739"
         style="color:#000000;clip-rule:nonzero;display:inline;overflow:visible;visibility:visible;opacity:1;isolation:auto;mix-blend-mode:normal;color-interpolation:sRGB;color-interpolation-filters:linearRGB;solid-color:#000000;solid-opacity:1;fill:none;fill-opacity:1;fill-rule:evenodd;stroke:#000000;stroke-width:8;stroke-linecap:round;stroke-linejoin:round;stroke-miterlimit:4;stroke-dasharray:none;stroke-dashoffset:0;stroke-opacity:1;color-rendering:auto;image-rendering:auto;shape-rendering:auto;text-rendering:auto;enable-background:accumulate" />
      <path
         sodipodi:nodetypes="csssssssc"
         inkscape:connector-curvature="0"
         id="path7505"
         d="m 379.73921,23.821235 c 0,0 -127.81376,26.445212 -121.12401,73.131473 6.76201,47.190532 96.17172,14.185052 138.26419,36.565732 21.45012,11.40509 43.35651,26.5889 54.8486,47.99253 12.18056,22.68585 0.0186,52.9453 10.28412,76.55952 11.97722,27.55152 31.01428,54.86086 57.13396,69.70343 37.84218,21.50393 109.96299,-19.6558 129.12277,19.42555 17.86518,36.44069 -27.21579,81.57058 -59.41933,106.26917 -28.36849,21.75729 -106.26917,26.28162 -106.26917,26.28162"
         style="color:#000000;clip-rule:nonzero;display:inline;overflow:visible;visibility:visible;opacity:1;isolation:auto;mix-blend-mode:normal;color-interpolation:sRGB;color-interpolation-filters:linearRGB;solid-color:#000000;solid-opacity:1;fill:none;fill-opacity:1;fill-rule:evenodd;stroke:#000000;stroke-width:8;stroke-linecap:round;stroke-linejoin:miter;stroke-miterlimit:4;stroke-dasharray:none;stroke-dashoffset:0;stroke-opacity:1;color-rendering:auto;image-rendering:auto;shape-rendering:auto;text-rendering:auto;enable-background:accumulate" />
      <path
         sodipodi:nodetypes="cssssssssc"
         inkscape:connector-curvature="0"
         id="path7507"
         d="m 625.41524,139.23185 c 0,0 -9.83054,33.68057 -33.13769,62.84735 -26.70116,33.41408 -82.50897,22.98895 -124.55204,30.85235 -70.95861,13.27153 -142.72961,23.72308 -214.82371,27.42429 -31.20143,1.60185 -78.37221,-29.50966 -93.6997,-2.28535 -19.74943,35.07846 22.9276,63.4632 61.70469,74.27415 52.3435,14.59322 99.43349,-65.2282 149.69098,-44.5645 48.46236,19.92562 86.13364,77.67952 53.70592,118.83865 -53.52476,67.93674 -201.5787,-58.7139 -260.53087,4.57072 -15.53623,16.67799 62.84736,61.70468 62.84736,61.70468"
         style="color:#000000;clip-rule:nonzero;display:inline;overflow:visible;visibility:visible;opacity:1;isolation:auto;mix-blend-mode:normal;color-interpolation:sRGB;color-interpolation-filters:linearRGB;solid-color:#000000;solid-opacity:1;fill:none;fill-opacity:1;fill-rule:evenodd;stroke:#000000;stroke-width:8;stroke-linecap:round;stroke-linejoin:miter;stroke-miterlimit:4;stroke-dasharray:none;stroke-dashoffset:0;stroke-opacity:1;color-rendering:auto;image-rendering:auto;shape-rendering:auto;text-rendering:auto;enable-background:accumulate" />
      <path
         sodipodi:nodetypes="cssssssssssssc"
         inkscape:connector-curvature="0"
         id="path7509"
         d="m 467.72551,86.668597 c 0,0 14.51552,42.120473 3.42804,68.560753 -18.0552,43.05614 -61.67258,47.95238 -101.69846,71.9888 -27.75571,16.66792 -47.46674,46.70004 -77.70219,58.27664 -56.77689,21.73882 -147.60499,66.34307 -181.68601,15.9975 -19.861942,-29.3407 31.13455,-63.67859 47.99253,-94.84237 16.31947,-30.16828 17.61238,-83.34487 51.42058,-89.12899 38.07505,-6.51412 57.05337,52.28034 87.9863,75.41684 41.45489,31.00647 91.50289,50.24537 130.26543,84.55826 27.53362,24.37296 40.55798,63.70713 70.84612,84.55827 27.88019,19.19345 66.29,49.3826 95.98506,33.13769 31.28448,-17.11442 -9.10668,-94.04099 25.13894,-103.98381 30.5252,-8.86263 62.12828,35.14733 68.56076,66.2754 9.01851,43.64241 -51.42057,123.40936 -51.42057,123.40936"
         style="color:#000000;clip-rule:nonzero;display:inline;overflow:visible;visibility:visible;opacity:1;isolation:auto;mix-blend-mode:normal;color-interpolation:sRGB;color-interpolation-filters:linearRGB;solid-color:#000000;solid-opacity:1;fill:none;fill-opacity:1;fill-rule:evenodd;stroke:#000000;stroke-width:8;stroke-linecap:round;stroke-linejoin:miter;stroke-miterlimit:4;stroke-dasharray:none;stroke-dashoffset:0;stroke-opacity:1;color-rendering:auto;image-rendering:auto;shape-rendering:auto;text-rendering:auto;enable-background:accumulate" />
    </g>
  </g>
</svg>
