<?xml version="1.0" encoding="UTF-8" standalone="no"?>
<!-- Created with Inkscape (http://www.inkscape.org/) -->

<svg
   xmlns:dc="http://purl.org/dc/elements/1.1/"
   xmlns:cc="http://creativecommons.org/ns#"
   xmlns:rdf="http://www.w3.org/1999/02/22-rdf-syntax-ns#"
   xmlns:svg="http://www.w3.org/2000/svg"
   xmlns="http://www.w3.org/2000/svg"
   xmlns:sodipodi="http://sodipodi.sourceforge.net/DTD/sodipodi-0.dtd"
   xmlns:inkscape="http://www.inkscape.org/namespaces/inkscape"
   width="141.4016mm"
   height="128.20937mm"
   viewBox="0 0 501.02931 454.28515"
   id="svg2"
   version="1.1"
   inkscape:version="0.91 r13725"
   sodipodi:docname="logo.svg"
   inkscape:export-filename="/home/simon/Dokumente/Studium/TUD/Bachelor Medieninformatik/4. Semester/Medienpsychologie und -didaktik/Projekt/design/logo/logo.png"
   inkscape:export-xdpi="300"
   inkscape:export-ydpi="300">
  <defs
     id="defs4" />
  <sodipodi:namedview
     id="base"
     pagecolor="#ffffff"
     bordercolor="#666666"
     borderopacity="1.0"
     inkscape:pageopacity="0.0"
     inkscape:pageshadow="2"
     inkscape:zoom="1.4"
     inkscape:cx="296.68131"
     inkscape:cy="193.76329"
     inkscape:document-units="px"
     inkscape:current-layer="layer2"
     showgrid="false"
     fit-margin-top="0"
     fit-margin-left="0"
     fit-margin-right="0"
     fit-margin-bottom="0" />
  <metadata
     id="metadata7">
    <rdf:RDF>
      <cc:Work
         rdf:about="">
        <dc:format>image/svg+xml</dc:format>
        <dc:type
           rdf:resource="http://purl.org/dc/dcmitype/StillImage" />
        <dc:title></dc:title>
      </cc:Work>
    </rdf:RDF>
  </metadata>
  <g
     inkscape:groupmode="layer"
     id="layer2"
     inkscape:label="logo"
     transform="translate(-127.14285,-214.7908)">
    <path
       style="opacity:1;fill:#000000;fill-opacity:1;stroke:none;stroke-width:15;stroke-linecap:round;stroke-linejoin:bevel;stroke-miterlimit:4;stroke-dasharray:none;stroke-opacity:1"
       d="M 250.51367,0 C 112.1588,3.6555347e-4 1.7664116e-4,101.69541 0,227.14258 1.7664116e-4,352.58975 112.1588,454.28479 250.51367,454.28516 388.86931,454.28578 501.02912,352.59045 501.0293,227.14258 501.02912,101.69471 388.86931,-6.1593625e-4 250.51367,0 Z M 68.935547,127.83008 c 7.019131,-3.7e-4 12.709356,5.68985 12.708984,12.70898 -7.05e-4,7.01837 -5.690614,12.7074 -12.708984,12.70703 -7.01837,3.7e-4 -12.70828,-5.68866 -12.708985,-12.70703 -3.72e-4,-7.01913 5.689853,-12.70935 12.708985,-12.70898 z m 0.259765,36.13086 c 3.93396,0.12335 7.103476,3.26644 7.259766,7.19922 0,0 1.13671,21.1312 1.615234,45.27148 0.21586,10.89151 0.278994,22.06683 0.08984,32.52344 20.126284,2.61979 34.923188,12.22156 42.574228,18.31836 7.38569,-7.05926 22.12789,-18.41992 41.15429,-18.41992 19.42537,0 35.71423,11.63883 43.70313,18.52343 8.32047,-7.16011 27.64236,-19.45703 49.12109,-19.45703 4.41311,0 8.38986,0.48015 12.00391,1.29102 0.32911,-8.53159 0.47327,-15.93659 0.51172,-18.00586 -0.15611,-5.33529 -0.54489,-31.01866 -1.34961,-43.7461 l -0.0234,-0.36914 c -0.0341,-1.56473 -0.0583,-1.35641 -0.42969,-2.41211 -0.37977,-1.07963 -1.18126,-4.08639 -0.91406,-7.02343 0.5244,-6.71905 8.99019,-9.34468 13.22461,-4.10157 4.9989,-2.57714 10.7262,-3.89734 16.60156,-3.90234 3.60922,-0.003 7.25957,0.46526 10.79297,1.38086 7.06679,1.8312 13.93755,5.81796 18.67773,12.37109 4.74019,6.55313 7.03966,15.45591 5.96875,25.81055 -1.59465,15.41877 -11.65654,26.90851 -24.51172,28.91016 -7.7061,1.19991 -15.79767,-0.96224 -23.15624,-6.06641 -0.0494,2.65735 -0.21101,11.55148 -0.65821,21.64063 -0.0198,0.44789 -0.046,0.89486 -0.0664,1.34375 5.72576,3.33705 10.18121,7.20563 14.00781,10.1289 7.2955,-6.38185 25.89302,-16.85105 44.26367,-17.4414 2.72273,-0.0875 5.3424,0.0804 7.85547,0.44726 0.30009,-8.06324 0.43545,-14.93251 0.47266,-16.93359 -0.1558,-5.30031 -0.54411,-31.04333 -1.34961,-43.78321 l -0.0234,-0.36914 c -0.0341,-1.56473 -0.0583,-1.35641 -0.42969,-2.41211 -0.37978,-1.07963 -1.18126,-4.08639 -0.91406,-7.02343 0.5226,-6.72165 8.99259,-9.3482 13.22656,-4.10157 4.99882,-2.577 10.72635,-3.89734 16.60156,-3.90234 3.60922,-0.003 7.25762,0.46526 10.79102,1.38086 7.06679,1.8312 13.93754,5.81796 18.67773,12.37109 4.74019,6.55313 7.03966,15.45591 5.96875,25.81055 -1.59465,15.41878 -11.65653,26.90851 -24.51172,28.91016 -7.70614,1.19991 -15.79765,-0.96224 -23.15625,-6.06641 -0.048,2.58554 -0.20673,11.10539 -0.62695,20.85547 6.96979,3.50184 12.48054,8.13338 16.22461,11.85742 4.13543,-3.97031 9.86956,-9.07384 17.29297,-14.22656 13.45361,-9.33838 31.77844,-18.547 49.37891,-11.03516 l -0.0664,-0.0293 c 12.14432,5.0438 17.22446,1.94333 19.57812,-1.53516 2.34209,-3.4614 2.3092,-9.09525 -2.4746,-13.65234 -4.54306,-3.9708 -8.78881,-4.59457 -15.19922,-6.14454 -6.46404,-1.56294 -15.08067,-4.73299 -21.38282,-13.75195 l -0.12304,-0.17773 -0.11133,-0.18164 c -3.91678,-6.35091 -4.1202,-13.98995 -1.46094,-19.99024 2.65926,-6.0003 7.66099,-10.57073 13.71485,-13.36914 12.10768,-5.59683 29.39001,-3.51448 41.78515,10.98633 2.76354,3.14173 2.42284,7.9376 -0.75781,10.65625 -3.18066,2.71864 -7.97132,2.30878 -10.64453,-0.91016 -8.62836,-10.09413 -17.75833,-10.04394 -24.08985,-7.11718 -3.16576,1.46338 -5.39165,3.7939 -6.29492,5.83203 -0.88381,1.99422 -0.95493,3.52962 0.46289,5.90039 3.88051,5.44039 6.86958,6.19906 12.42774,7.54297 5.6492,1.36592 14.00993,2.73995 21.73242,9.57812 l 0.084,0.0742 0.084,0.0781 c 9.67373,9.10368 11.3585,23.16761 4.66992,33.05273 -6.68859,9.88511 -21.40514,13.77241 -37.75391,6.98242 l -0.0332,-0.0137 -0.0352,-0.0156 c -9.46844,-4.0411 -23.14994,1.38252 -34.9375,9.56446 -11.78755,8.18195 -20.57422,17.83593 -20.57421,17.83593 l -6.06836,6.70508 -5.4668,-7.20508 c 0,0 -4.30592,-5.25184 -10.97852,-10.00195 -0.37725,4.36783 -0.86384,8.34562 -1.54492,11.47852 -0.83158,4.06651 -4.82583,6.66945 -8.88183,5.78807 -4.056,-0.88139 -6.60978,-4.90725 -5.67872,-8.95214 0.57253,-2.63355 1.14401,-8.55923 1.60352,-15.15039 -2.13262,-0.47191 -4.33419,-0.71676 -6.58203,-0.64453 -18.03743,0.57964 -38.9043,17.5625 -38.9043,17.5625 l -5.125,5.4961 -5.48633,-5.13282 c 0,0 -3.68612,-4.70609 -10.26367,-9.26953 -0.36289,3.90126 -0.82007,7.45366 -1.43945,10.30274 -0.80392,4.09563 -4.81502,6.73209 -8.89359,5.84568 -4.07857,-0.88641 -6.63354,-4.9499 -5.665,-9.00975 0.54014,-2.4847 1.07713,-7.92129 1.52343,-14.05273 -3.42943,-0.95376 -7.16075,-1.54297 -11.16992,-1.54297 -21.64706,0 -43.70117,19.86914 -43.70117,19.86914 l -5.34961,5.59961 -5.42578,-5.52734 c 0,0 -20.16696,-19.00781 -38.34766,-19.00781 -18.1807,0 -34.92578,18.57617 -34.92578,18.57617 l -5.39844,6.43359 -5.78515,-6.0918 c 0,0 -14.61744,-15.25843 -38.205085,-18.78515 -0.539671,6.5069 -0.318398,14.07396 -4.145089,19.91211 -7.258112,10.17311 -15.018714,15.92268 -25.698661,17.6582 -8.95171,1.39627 -17.781694,-1.68736 -22.205078,-8.8125 -4.42339,-7.12515 -2.863861,-17.09404 3.724609,-24.79297 6.40032,-7.47907 17.243118,-13.90297 33.732422,-18.91992 0.24053,-10.27503 0.302684,-21.56585 0.08984,-32.30273 -0.47264,-23.84329 -1.595704,-44.76368 -1.595704,-44.76368 -0.299714,-4.42541 3.285396,-8.14295 7.71875,-8.0039 z m 124.615238,1.62304 c 0.6026,-0.008 1.21196,0.008 1.82422,0.0488 5.5617,0.36846 11.38345,2.83886 15.92382,7.40821 5.55476,-4.12245 12.38017,-5.96272 19.04297,-5.125 8.531,1.07261 16.89885,7.24487 19.82032,17.10937 l 0.43164,1.45703 -0.16993,1.50977 c -1.86077,16.56195 -1.80563,25.41517 -1.08203,29.65429 0.7236,4.23912 0.96439,3.73777 3.35156,6.20508 2.9714,2.96202 2.93546,7.78533 -0.0797,10.70274 -3.0152,2.91741 -7.83708,2.79436 -10.69955,-0.27305 -2.33373,-2.41203 -6.15112,-7.03293 -7.35938,-14.11133 -1.15042,-6.73959 -0.87371,-16.24686 0.80469,-31.87109 -1.42697,-3.74265 -3.74999,-5.10537 -6.88867,-5.5 -3.27273,-0.41148 -7.1768,0.90128 -9.79688,3.63672 -1.15173,2.09879 -3.56619,12.24854 -3.87695,21.42773 -0.16026,4.73388 -0.007,9.34796 0.36524,12.79492 0.18621,1.72348 0.43431,3.16189 0.65429,4.04688 0.14848,0.59957 0.2582,0.76393 0.14649,0.60156 2.30722,3.34956 1.52447,7.92765 -1.76455,10.32038 -3.28902,2.39273 -7.88574,1.72818 -10.36241,-1.49811 -1.77328,-2.2662 -2.113,-3.94129 -2.57617,-5.80469 -0.46317,-1.86341 -0.77442,-3.85881 -1.01172,-6.05469 -0.47461,-4.39177 -0.62288,-9.55341 -0.4414,-14.91406 0.24771,-7.31668 0.76292,-14.60392 2.75,-21.12891 -2.48385,-5.40375 -5.42536,-5.9941 -9.35157,-5.61523 -4.24252,0.40941 -8.53679,4.27495 -8.71289,4.57226 -2.83654,9.05634 -3.62449,18.32908 -3.27929,25.8711 0.35068,7.66163 2.41822,14.1003 2.6875,14.57031 2.15645,3.60238 0.93626,8.27319 -2.70657,10.36059 -3.64282,2.08739 -8.28953,0.7784 -10.30711,-2.90356 -3.05917,-5.33953 -4.23618,-12.1216 -4.6582,-21.3418 -0.41932,-9.16116 0.4839,-20.1728 4.03711,-31.35546 -0.37169,-0.84463 -0.68436,-1.61126 -1.09375,-2.82032 -2.4364,-6.92113 5.48854,-12.8628 11.44922,-8.58398 3.35256,-1.73507 7.10415,-2.90913 11.14258,-3.29883 0.58866,-0.0568 1.18451,-0.0895 1.78711,-0.0977 z m -76.23047,3.27735 c 0.80618,-0.008 1.60848,0.0114 2.4082,0.0566 7.10124,0.4016 13.78152,2.99446 19.60156,6.58008 5.20731,-7.09885 16.27177,-0.97149 13.01758,7.20898 -1.37151,3.57518 -1.8385,6.03004 -1.875,6.2168 -0.82724,12.2928 -0.87532,8.49674 -0.20312,25 0.49597,1.45931 1.47575,4.33041 2.71289,8.04492 3.01698,8.69609 -9.25927,14.13174 -13.66992,6.05273 -6.94909,4.78121 -15.45087,7.22528 -23.93555,6.4336 -6.46433,-0.60316 -13.07388,-3.46661 -17.763673,-9.01172 -4.68777,-5.54274 -7.219835,-13.32697 -7.302735,-22.8125 -2.5e-5,-0.003 3e-5,-0.005 0,-0.008 l 0,-0.004 c -0.101185,-10.28091 2.106034,-18.42925 6.689454,-24.31836 4.585264,-5.89147 11.400784,-8.82359 17.892574,-9.33203 0.81148,-0.0635 1.62155,-0.0993 2.42774,-0.10742 z m 59.73047,2.02148 c -0.28964,0.0268 -0.33859,0.10148 -0.58203,0.14258 0.25483,-0.0586 0.54349,-0.0765 0.83203,-0.11133 0.005,-0.004 0.0106,-0.008 0.0156,-0.0117 -0.0888,0.004 -0.17722,-0.0275 -0.26562,-0.0195 z m -1.96094,0.47852 c -0.75856,0.28904 -1.16123,0.55258 -0.9668,0.43945 0.10657,-0.062 0.57112,-0.26422 0.9668,-0.43945 z m -57.9375,12.52344 c -0.37293,-0.002 -0.73633,0.009 -1.08984,0.0371 -3.25774,0.25514 -5.36799,1.20628 -7.22461,3.59179 -1.85661,2.38551 -3.60815,6.90656 -3.52735,14.9668 l 0,0.004 0,0.006 c 0.0593,6.9639 1.78537,10.93771 3.75586,13.26758 1.97049,2.32987 4.42441,3.45561 7.70508,3.76172 6.05151,0.56464 14.15013,-3.11907 18.41406,-8.08008 -0.39549,-9.92604 -0.34593,-14.17979 0.11719,-20.33789 -4.9345,-3.86478 -12.55643,-7.18217 -18.15039,-7.21679 z m 179.00586,0.89062 c -0.55985,-0.0149 -1.11996,-0.0101 -1.67774,0.0117 -5.63188,0.21998 -11.02759,2.24808 -13.875,4.8125 0.32824,6.12425 0.59273,13.57653 0.78125,20.87305 7.37169,10.93867 15.562,13.82526 21.32618,12.92773 5.8853,-0.91639 10.9179,-5.40892 11.98437,-15.7207 0.77163,-7.46089 -0.79383,-12.18713 -3.22265,-15.54492 -2.42884,-3.35779 -6.03107,-5.56265 -10.3418,-6.67969 -1.61653,-0.41888 -3.29506,-0.63499 -4.97461,-0.67969 z m 80.75586,0 c -0.55985,-0.0149 -1.11996,-0.0101 -1.67774,0.0117 -5.63189,0.21998 -11.02759,2.24808 -13.875,4.8125 0.32824,6.12425 0.59273,13.57653 0.78125,20.87305 7.37169,10.93867 15.562,13.82526 21.32618,12.92773 5.88531,-0.91639 10.9179,-5.40892 11.98437,-15.7207 0.77162,-7.46089 -0.79186,-12.18713 -3.2207,-15.54492 -2.42885,-3.35779 -6.03302,-5.56265 -10.34375,-6.67969 -1.61653,-0.41888 -3.29506,-0.63499 -4.97461,-0.67969 z m -314.83008,80.3418 c -11.500794,4.14487 -18.519456,8.87252 -21.697266,12.58593 -3.736174,4.36591 -3.020683,6.09394 -2.376953,7.13086 0.64373,1.03692 2.790698,2.58207 7.148438,1.90235 4.08354,-0.63694 8.765744,-2.67583 14.649274,-9.72433 2.818299,-2.57782 1.968477,-7.33788 2.276507,-11.89481 z"
       transform="translate(127.14285,214.79078)"
       id="path4147"
       inkscape:connector-curvature="0"
       sodipodi:nodetypes="ssssscccccccsccscsccccccccssssccccsccccccccsssscccsccscscccsscscsscscccscccscccccsccscccccsccscccsccccccsscsccccccscccscscscscscccscssscscscscscccsccccccccccsscccsccccccccccccccscccssccccccccssssccccccsssscccssscc">
      <title
         id="title4305">circle</title>
    </path>
  </g>
</svg>
