<?xml version="1.0" encoding="UTF-8" standalone="no"?>
<!-- Created with Inkscape (http://www.inkscape.org/) -->

<svg
   xmlns:dc="http://purl.org/dc/elements/1.1/"
   xmlns:cc="http://creativecommons.org/ns#"
   xmlns:rdf="http://www.w3.org/1999/02/22-rdf-syntax-ns#"
   xmlns:svg="http://www.w3.org/2000/svg"
   xmlns="http://www.w3.org/2000/svg"
   xmlns:sodipodi="http://sodipodi.sourceforge.net/DTD/sodipodi-0.dtd"
   xmlns:inkscape="http://www.inkscape.org/namespaces/inkscape"
   width="119.39101mm"
   height="108.25261mm"
   viewBox="0 0 423.03906 383.57223"
   id="svg2"
   version="1.1"
   inkscape:version="0.91 r13725"
   sodipodi:docname="logo.svg"
   inkscape:export-filename="/home/simon/Dokumente/Studium/TUD/Bachelor Medieninformatik/4. Semester/Medienpsychologie und -didaktik/Projekt/medida/design/logo/logo.png"
   inkscape:export-xdpi="300"
   inkscape:export-ydpi="300">
  <defs
     id="defs4" />
  <sodipodi:namedview
     id="base"
     pagecolor="#ffffff"
     bordercolor="#666666"
     borderopacity="1.0"
     inkscape:pageopacity="0.0"
     inkscape:pageshadow="2"
     inkscape:zoom="1.6102564"
     inkscape:cx="42.125692"
     inkscape:cy="218.80218"
     inkscape:document-units="px"
     inkscape:current-layer="layer2"
     showgrid="false"
     fit-margin-top="0"
     fit-margin-left="0"
     fit-margin-right="0"
     fit-margin-bottom="0" />
  <metadata
     id="metadata7">
    <rdf:RDF>
      <cc:Work
         rdf:about="">
        <dc:format>image/svg+xml</dc:format>
        <dc:type
           rdf:resource="http://purl.org/dc/dcmitype/StillImage" />
        <dc:title />
      </cc:Work>
    </rdf:RDF>
  </metadata>
  <g
     inkscape:groupmode="layer"
     id="layer2"
     inkscape:label="logo"
     transform="translate(-127.14285,-245.45794)">
    <path
       style="opacity:1;fill:#000000;fill-opacity:1;stroke:none;stroke-width:15;stroke-linecap:round;stroke-linejoin:bevel;stroke-miterlimit:4;stroke-dasharray:none;stroke-opacity:1"
       d="m 338.66238,245.45792 c -116.81874,-1.3e-4 -211.5192,85.86496 -211.51953,191.78516 -8.6e-4,105.92096 94.69995,191.78724 211.51953,191.78711 116.81958,1.3e-4 211.52039,-85.86615 211.51953,-191.78711 -3.3e-4,-105.9202 -94.70079,-191.78529 -211.51953,-191.78516 z M 196.0784,338.71768 c 7.01837,-3.7e-4 12.70828,5.68867 12.70898,12.70704 3.7e-4,7.01913 -5.68985,12.70935 -12.70898,12.70898 -7.01913,3.8e-4 -12.70936,-5.68985 -12.70899,-12.70898 7e-4,-7.01838 5.69061,-12.70742 12.70899,-12.70704 z m 260.25781,14.60547 c 0.65566,0.0248 1.30051,0.10968 1.91992,0.2461 2.47763,0.54567 4.67177,1.84622 6.2461,3.72265 1.57431,1.87643 2.5286,4.59078 1.73828,7.29493 -1.16002,3.96913 -3.85845,7.201 -6.6211,10.02929 0.79434,0.44612 1.53848,0.95001 2.09961,1.54688 l -0.0644,-0.0664 c 0.3203,0.32031 2.29805,0.41395 3.17969,-0.74609 2.41634,-3.21562 7.22865,0.44182 4.77734,3.63086 -3.00948,3.95981 -8.72379,4.83285 -12.19922,1.35742 l -0.0332,-0.0332 -0.0312,-0.0332 c -0.28526,-0.30343 -1.02111,-0.76508 -1.79688,-0.80468 -0.43029,-0.022 -0.96205,0.0945 -1.57812,0.40039 -0.62666,0.49539 -1.48686,1.24278 -1.90625,1.54687 -0.23965,0.17377 -0.43969,0.31333 -0.60938,0.42774 -0.0848,0.0572 -0.1608,0.10671 -0.25,0.16211 -0.0892,0.0554 0.0386,0.0579 -0.59375,0.29882 -0.079,0.0301 -0.17775,0.0675 -0.3457,0.10938 -0.16795,0.0418 -0.87822,0.086 -0.87891,0.0859 -6.9e-4,-4e-5 -2.30443,-1.26919 -2.30468,-1.26954 -2.4e-4,-3.6e-4 -0.42403,-2.5794 -0.42383,-2.58007 1.9e-4,-6.7e-4 0.27319,-0.64914 0.36719,-0.79297 0.094,-0.14383 0.16074,-0.22458 0.21484,-0.28906 0.10815,-0.12897 0.1677,-0.18658 0.2168,-0.23438 0.19662,-0.1911 0.24393,-0.2158 0.32421,-0.2793 0.16053,-0.12707 0.33336,-0.25545 0.58008,-0.43359 l -0.39453,0.33984 c 0.0244,-0.0251 0.0536,-0.0298 0.0781,-0.0547 0.12626,-0.12791 0.27381,-0.16079 0.40234,-0.28125 0.038,-0.0272 0.0518,-0.0359 0.0937,-0.0664 0.78756,-0.57104 2.2583,-1.70358 3.89258,-3.1582 3.26855,-2.90924 7.1195,-7.3297 8.04492,-10.4961 0.14714,-0.50346 0.0485,-1.01135 -0.57617,-1.75586 -0.62465,-0.74452 -1.77405,-1.46208 -2.93945,-1.71875 -1.1654,-0.25666 -2.24181,-0.12565 -3.18946,0.50196 -0.94765,0.6276 -1.97211,1.86688 -2.57617,4.58007 -0.78852,4.02761 -6.84894,2.67928 -5.85547,-1.30273 0.84993,-3.81753 2.67209,-6.65868 5.11914,-8.2793 1.22353,-0.8103 2.55246,-1.2868 3.88477,-1.49218 0.66615,-0.10269 1.33262,-0.13806 1.98828,-0.11329 z m -259.99805,21.52344 c 3.93396,0.12335 7.10348,3.26644 7.25977,7.19922 0,0 1.1367,21.13121 1.61523,45.27149 0.21586,10.89149 0.27899,22.06682 0.0898,32.52343 20.12629,2.61979 34.92319,12.22156 42.57423,18.31836 7.38573,-7.05926 22.12789,-18.41992 41.15429,-18.41992 19.42537,0 35.71423,11.63884 43.70313,18.52344 8.32047,-7.16011 25.64236,-19.45703 47.12109,-19.45703 4.96567,0 9.63852,0.64888 13.98633,1.72656 0.34152,-8.71699 0.4902,-16.33694 0.5293,-18.44141 -0.15611,-5.33529 -0.54489,-31.01865 -1.34961,-43.74609 l -0.0234,-0.36914 c -0.0341,-1.56473 -0.0583,-1.35641 -0.42969,-2.41211 -0.37977,-1.07963 -1.18126,-4.0864 -0.91406,-7.02344 0.52441,-6.71904 8.99019,-9.34467 13.22461,-4.10156 4.9989,-2.57714 10.7262,-3.89735 16.60156,-3.90235 3.60922,-0.003 7.25957,0.46526 10.79297,1.38086 7.06679,1.8312 13.93755,5.81797 18.67773,12.3711 4.74019,6.55313 7.03966,15.45591 5.96875,25.81054 -1.59465,15.41877 -11.65654,26.90851 -24.51172,28.91016 -7.70612,1.19991 -15.79765,-0.96224 -23.15624,-6.0664 -0.0494,2.65734 -0.21101,11.55147 -0.65821,21.64062 -0.0237,0.53381 -0.0537,1.06644 -0.0781,1.60156 6.51629,3.43202 11.71964,7.44742 15.32812,10.64844 4.17134,-4.2246 10.03338,-9.71294 18.16797,-15.42969 13.93783,-9.79508 33.3383,-19.08789 52.26563,-11.00976 l -0.0664,-0.0293 c 12.14432,5.0438 17.22446,1.94333 19.57812,-1.53516 2.34209,-3.4614 2.30924,-9.09525 -2.4746,-13.65234 -4.54306,-3.9708 -8.78881,-4.59456 -15.19922,-6.14453 -6.46404,-1.56294 -15.08067,-4.73299 -21.38282,-13.75195 l -0.12304,-0.17774 -0.11133,-0.18164 c -3.91678,-6.35091 -4.1202,-13.98994 -1.46094,-19.99023 2.65926,-6.0003 7.66099,-10.57073 13.71485,-13.36914 12.10772,-5.59683 29.39001,-3.51449 41.78515,10.98632 2.76334,3.14175 2.42195,7.93696 -0.75862,10.65553 -3.18056,2.71858 -7.97046,2.30932 -10.64372,-0.90943 -8.62836,-10.09413 -17.75833,-10.04395 -24.08985,-7.11719 -3.16576,1.46338 -5.39165,3.7939 -6.29492,5.83203 -0.88381,1.99422 -0.95493,3.52962 0.46289,5.90039 3.88051,5.44039 6.86958,6.19906 12.42774,7.54297 5.6492,1.36592 14.00993,2.73996 21.73242,9.57813 l 0.084,0.0742 0.084,0.0781 c 9.67373,9.10368 11.3585,23.16761 4.66992,33.05273 -6.68859,9.88511 -21.40514,13.77242 -37.75391,6.98243 l -0.0332,-0.0137 -0.0352,-0.0156 c -11.36009,-4.84845 -25.61026,0.95546 -37.75195,9.48828 -12.1417,8.53282 -20.91601,18.69141 -20.91602,18.69141 l -5.67968,6.61718 -5.69141,-6.60546 c 0,0 -4.11784,-4.58506 -10.93359,-9.19922 -0.34939,3.5435 -0.78418,6.75687 -1.35547,9.38476 -0.80387,4.09568 -4.815,6.73219 -8.8936,5.84577 -4.07861,-0.88641 -6.63359,-4.94995 -5.66499,-9.00983 0.52168,-2.39969 1.04079,-7.55865 1.47851,-13.42578 -4.06742,-1.32421 -8.47713,-2.16992 -13.125,-2.16992 -21.64706,0 -41.70117,19.86914 -41.70117,19.86914 l -5.34961,5.59961 -5.42578,-5.52735 c 0,0 -20.16696,-19.00781 -38.34766,-19.00781 -18.1807,0 -34.92578,18.57617 -34.92578,18.57617 l -5.39844,6.4336 -5.78515,-6.0918 c 0,0 -14.61744,-15.25844 -38.20508,-18.78516 -0.42562,6.51396 -1.00485,12.52033 -1.99805,17.02344 l -0.36133,1.63867 -1.02734,1.33008 c -8.11102,10.50281 -17.50532,16.18185 -26.45703,17.57813 -8.95171,1.39625 -17.78169,-1.68738 -22.20508,-8.8125 -4.42339,-7.12515 -2.86386,-17.09404 3.72461,-24.79297 6.40032,-7.47907 17.24311,-13.90298 33.73242,-18.91993 0.24053,-10.27503 0.30268,-21.56585 0.0898,-32.30273 -0.47264,-23.84329 -1.5957,-44.76367 -1.5957,-44.76367 -0.29972,-4.42541 3.28539,-8.14296 7.71875,-8.00391 z m 124.61524,1.62305 c 0.6026,-0.008 1.21196,0.008 1.82422,0.0488 5.5617,0.36846 11.38345,2.83885 15.92382,7.4082 5.55476,-4.12245 12.38017,-5.96272 19.04297,-5.125 8.531,1.07261 16.89885,7.24489 19.82032,17.10937 l 0.43164,1.45704 -0.16993,1.50976 c -1.86077,16.56195 -1.80563,25.41518 -1.08203,29.6543 0.7236,4.23912 0.96437,3.73777 3.35156,6.20508 2.97153,2.96199 2.93565,7.78541 -0.0796,10.70287 -3.01526,2.91747 -7.83723,2.79435 -10.69968,-0.27319 -2.33373,-2.41203 -6.15112,-7.03292 -7.35938,-14.11132 -1.15042,-6.73959 -0.87371,-16.24687 0.80469,-31.8711 -1.42697,-3.74265 -3.74999,-5.10537 -6.88867,-5.5 -3.27273,-0.41148 -7.1768,0.90128 -9.79688,3.63672 -1.15173,2.09879 -3.56619,12.24855 -3.87695,21.42774 -0.16026,4.73388 -0.007,9.34796 0.36524,12.79492 0.18623,1.72348 0.43431,3.16188 0.65429,4.04687 0.14848,0.59957 0.2582,0.76392 0.14649,0.60157 2.30713,3.34956 1.52435,7.92757 -1.76463,10.32028 -3.28897,2.3927 -7.88564,1.72819 -10.36233,-1.49802 -1.77328,-2.2662 -2.113,-3.94129 -2.57617,-5.80469 -0.46317,-1.86341 -0.77442,-3.8588 -1.01172,-6.05468 -0.47461,-4.39177 -0.62288,-9.55342 -0.4414,-14.91407 0.24771,-7.31668 0.76292,-14.60391 2.75,-21.1289 -2.48385,-5.40375 -5.42536,-5.99411 -9.35157,-5.61524 -4.24252,0.40941 -8.53679,4.27496 -8.71289,4.57227 -2.83654,9.05634 -3.62449,18.32907 -3.27929,25.87109 0.35068,7.66163 2.41822,14.1003 2.6875,14.57031 2.15638,3.60237 0.93617,8.27312 -2.70662,10.36049 -3.64278,2.08738 -8.28945,0.77844 -10.30706,-2.90345 -3.05917,-5.33953 -4.23618,-12.1216 -4.6582,-21.3418 -0.41932,-9.16116 0.4839,-20.17281 4.03711,-31.35547 -0.37169,-0.84463 -0.68436,-1.61125 -1.09375,-2.82031 -2.43642,-6.92113 5.48853,-12.86282 11.44922,-8.58399 3.35256,-1.73507 7.10415,-2.90914 11.14258,-3.29882 0.58866,-0.0568 1.18451,-0.0895 1.78711,-0.0977 z m -76.23047,3.27734 c 0.80618,-0.008 1.60848,0.0114 2.4082,0.0566 7.10124,0.4016 13.78152,2.99446 19.60156,6.58008 5.20732,-7.09887 16.27179,-0.97148 13.01758,7.20899 -1.37151,3.57518 -1.8385,6.03003 -1.875,6.21679 -0.82724,12.2928 -0.87532,8.49674 -0.20312,25 0.49597,1.45931 1.47575,4.33041 2.71289,8.04492 3.01701,8.6961 -9.25927,14.13177 -13.66992,6.05274 -6.94909,4.78121 -15.45087,7.22527 -23.93555,6.43359 -6.46433,-0.60316 -13.07388,-3.46661 -17.76367,-9.01172 -4.68777,-5.54274 -7.21984,-13.32697 -7.30274,-22.8125 -3e-5,-0.003 3e-5,-0.005 0,-0.008 l 0,-0.004 c -0.10119,-10.28091 2.10603,-18.42925 6.68945,-24.31836 4.58527,-5.89147 11.40079,-8.8236 17.89258,-9.33204 0.81148,-0.0636 1.62155,-0.0993 2.42774,-0.10742 z m -0.16797,15.02344 c -0.37293,-0.002 -0.73633,0.009 -1.08984,0.0371 -3.25774,0.25515 -5.36799,1.20629 -7.22461,3.5918 -1.85661,2.38551 -3.60815,6.90655 -3.52735,14.96679 l 0,0.004 0,0.006 c 0.0593,6.9639 1.78537,10.93771 3.75586,13.26758 1.97049,2.32987 4.42441,3.45561 7.70508,3.76172 6.05151,0.56464 14.15013,-3.11907 18.41406,-8.08008 -0.39549,-9.92604 -0.34593,-14.17979 0.11719,-20.33789 -4.9345,-3.86478 -12.55643,-7.18217 -18.15039,-7.2168 z m 179.00586,0.89258 c -0.55985,-0.0149 -1.11996,-0.012 -1.67774,0.01 -5.63188,0.21998 -11.02759,2.24808 -13.875,4.8125 0.32824,6.12425 0.59273,13.57653 0.78125,20.87305 7.37169,10.93867 15.562,13.82526 21.32618,12.92773 5.8853,-0.91638 10.9179,-5.40892 11.98437,-15.7207 0.77163,-7.46089 -0.79381,-12.18713 -3.22265,-15.54492 -2.42884,-3.35779 -6.03107,-5.56265 -10.3418,-6.67969 -1.61653,-0.41888 -3.29506,-0.63303 -4.97461,-0.67773 z M 189.4866,476.00284 c -11.5008,4.14487 -18.51946,8.87253 -21.69727,12.58594 -3.73618,4.3659 -3.02068,6.09394 -2.37695,7.13086 0.64373,1.03692 2.7907,2.58206 7.14844,1.90234 4.08354,-0.63694 9.83717,-3.5687 15.7207,-10.61718 0.49687,-2.75639 0.89705,-6.44503 1.20508,-11.00196 z"
       id="path4147"
       inkscape:connector-curvature="0"
       sodipodi:nodetypes="sssssccccccssscccccsccccccscccccsccccccccsscssccssccccsccscsccccccccssssccccsccscscccsscscsscscccscccscccccsccscccscccccccssscsccccccscccscscscscscccscssscscscscscccsccccccccccsscccscccccscccssccccccccsssscccssscc">
      <title
         id="title4309">circle</title>
    </path>
  </g>
</svg>
