<?xml version="1.0" encoding="UTF-8" standalone="no"?>
<!-- Created with Inkscape (http://www.inkscape.org/) -->

<svg
   xmlns:dc="http://purl.org/dc/elements/1.1/"
   xmlns:cc="http://creativecommons.org/ns#"
   xmlns:rdf="http://www.w3.org/1999/02/22-rdf-syntax-ns#"
   xmlns:svg="http://www.w3.org/2000/svg"
   xmlns="http://www.w3.org/2000/svg"
   xmlns:sodipodi="http://sodipodi.sourceforge.net/DTD/sodipodi-0.dtd"
   xmlns:inkscape="http://www.inkscape.org/namespaces/inkscape"
   width="141.11111mm"
   height="141.11111mm"
   viewBox="0 0 500.00004 500.00001"
   id="svg2"
   version="1.1"
   inkscape:version="0.91 r13725"
   sodipodi:docname="logo_white.svg"
   inkscape:export-filename="/home/simon/Dokumente/Studium/TUD/Bachelor Medieninformatik/4. Semester/Medienpsychologie und -didaktik/Projekt/design/logo/logo.png"
   inkscape:export-xdpi="300"
   inkscape:export-ydpi="300">
  <defs
     id="defs4" />
  <sodipodi:namedview
     id="base"
     pagecolor="#ffffff"
     bordercolor="#666666"
     borderopacity="1.0"
     inkscape:pageopacity="0.0"
     inkscape:pageshadow="2"
     inkscape:zoom="0.98994949"
     inkscape:cx="-290.18231"
     inkscape:cy="242.10958"
     inkscape:document-units="px"
     inkscape:current-layer="layer2"
     showgrid="false"
     fit-margin-top="0"
     fit-margin-left="0"
     fit-margin-right="0"
     fit-margin-bottom="0" />
  <metadata
     id="metadata7">
    <rdf:RDF>
      <cc:Work
         rdf:about="">
        <dc:format>image/svg+xml</dc:format>
        <dc:type
           rdf:resource="http://purl.org/dc/dcmitype/StillImage" />
        <dc:title />
      </cc:Work>
    </rdf:RDF>
  </metadata>
  <g
     inkscape:groupmode="layer"
     id="layer2"
     inkscape:label="logo"
     transform="translate(-127.14285,-169.07593)">
    <path
       style="opacity:1;fill:#ffffff;fill-opacity:1;stroke:none;stroke-width:15;stroke-linecap:round;stroke-linejoin:bevel;stroke-miterlimit:4;stroke-dasharray:none;stroke-opacity:1"
       d="m 377.14189,169.07591 c -138.07065,4.1e-4 -249.99886,111.92905 -249.99904,250.00002 1.8e-4,138.07096 111.92839,249.9996 249.99904,250.00001 C 515.2133,669.07662 627.1427,557.14766 627.14288,419.07593 627.1427,281.00419 515.2133,169.07523 377.14189,169.07591 Z M 195.93678,309.76957 c 7.00471,-4e-4 12.68325,6.26243 12.68288,13.98789 -7.1e-4,7.72463 -5.67893,13.98615 -12.68288,13.98575 -7.00395,4e-4 -12.68217,-6.26112 -12.68287,-13.98575 -3.8e-4,-7.72546 5.67816,-13.98829 12.68287,-13.98789 z m 0.25923,39.76673 c 3.92588,0.13576 7.08889,3.59514 7.24486,7.92368 0,0 1.13437,23.25764 1.61191,49.82716 0.21542,11.98753 0.27842,24.28742 0.0897,35.79628 20.08494,2.88342 34.85144,13.45142 42.48676,20.16175 7.37052,-7.76964 22.08244,-20.27353 41.06975,-20.27353 19.38546,0 35.64086,12.81005 43.61335,20.38745 8.30338,-7.88063 27.58557,-21.41499 49.02018,-21.41499 4.40404,0 8.37263,0.52846 11.97925,1.42093 0.32843,-9.39013 0.4723,-17.54029 0.51067,-19.81779 -0.15579,-5.87219 -0.54377,-34.14008 -1.34684,-48.14829 l -0.0233,-0.40629 c -0.034,-1.72219 -0.0582,-1.4929 -0.42881,-2.65484 -0.37899,-1.18827 -1.17883,-4.4976 -0.91218,-7.7302 0.52332,-7.39519 8.97172,-10.28504 13.19744,-4.51431 4.98863,-2.83648 10.70417,-4.28953 16.56746,-4.29503 3.6018,-0.003 7.24465,0.51208 10.7708,1.51981 7.05227,2.01548 13.90891,6.40343 18.63936,13.616 4.73045,7.21257 7.02519,17.01124 5.95648,28.40787 -1.59137,16.97037 -11.63259,29.61633 -24.46136,31.8194 -7.69027,1.32066 -15.76522,-1.05907 -23.10867,-6.67687 -0.0493,2.92476 -0.21058,12.71391 -0.65686,23.81833 -0.0198,0.49296 -0.0459,0.98491 -0.0663,1.47897 5.714,3.67286 10.16029,7.93074 13.97903,11.14818 7.28051,-7.02406 25.83983,-18.54678 44.17274,-19.19653 2.71714,-0.0963 5.33143,0.0885 7.83933,0.49226 0.29948,-8.87464 0.43456,-16.43517 0.47169,-18.63762 -0.15548,-5.83368 -0.54299,-34.16723 -1.34684,-48.18913 l -0.0233,-0.40629 c -0.034,-1.72219 -0.0582,-1.4929 -0.42881,-2.65484 -0.37899,-1.18827 -1.17883,-4.4976 -0.91218,-7.7302 0.52153,-7.39805 8.97412,-10.28891 13.19939,-4.51431 4.98855,-2.83632 10.70432,-4.28953 16.56746,-4.29503 3.6018,-0.003 7.24271,0.51208 10.76885,1.51981 7.05227,2.01548 13.90891,6.40343 18.63936,13.616 4.73045,7.21257 7.0252,17.01124 5.95649,28.40787 -1.59138,16.97038 -11.63259,29.61633 -24.46137,31.8194 -7.69031,1.32066 -15.7652,-1.05907 -23.10868,-6.67687 -0.0479,2.84572 -0.2063,12.22293 -0.62566,22.95416 6.95547,3.85423 12.4549,8.95185 16.19128,13.05064 4.12693,-4.36985 9.84928,-9.98695 17.25744,-15.65819 13.42598,-10.2781 31.71316,-20.41339 49.27747,-12.14563 l -0.0663,-0.0323 c 12.11937,5.55136 17.18908,2.13889 19.5379,-1.68964 2.33728,-3.80972 2.30446,-10.01051 -2.46952,-15.02618 -4.53372,-4.37038 -8.77075,-5.05692 -15.16799,-6.76287 -6.45076,-1.72022 -15.04969,-5.20927 -21.33889,-15.13581 l -0.12279,-0.19561 -0.1111,-0.19992 c -3.90874,-6.99001 -4.11174,-15.39777 -1.45794,-22.00187 2.6538,-6.60411 7.64525,-11.63446 13.68667,-14.71448 12.08281,-6.16004 29.32964,-3.86814 41.69931,12.09189 2.75787,3.45788 2.41787,8.73636 -0.75625,11.72859 -3.17412,2.99222 -7.95494,2.54111 -10.62266,-1.00175 -8.61064,-11.1099 -17.72185,-11.05466 -24.04036,-7.83338 -3.15926,1.61064 -5.38058,4.17568 -6.28199,6.41891 -0.882,2.1949 -0.95297,3.8848 0.46194,6.49414 3.87254,5.98786 6.85546,6.82288 12.40221,8.30203 5.63759,1.50337 13.98115,3.01567 21.68777,10.54197 l 0.0838,0.0817 0.0838,0.086 c 9.65385,10.01979 11.33516,25.49898 4.66032,36.37884 -6.67485,10.87985 -21.36116,15.15833 -37.67635,7.68506 l -0.0331,-0.0151 -0.0351,-0.0172 c -9.44899,-4.44775 -23.10238,1.52165 -34.86573,10.52694 -11.76333,9.0053 -20.53195,19.63076 -20.53194,19.63076 l -6.05589,7.37982 -5.45557,-7.93013 c 0,0 -4.29708,-5.78034 -10.95597,-11.00845 -0.37647,4.80737 -0.86207,9.18544 -1.54175,12.63361 -0.82987,4.47572 -4.81591,7.3406 -8.86358,6.37052 -4.04767,-0.97008 -6.5962,-5.40107 -5.66705,-9.85299 0.57135,-2.89857 1.14166,-9.42055 1.60022,-16.67498 -2.12824,-0.5194 -4.32528,-0.78889 -6.56851,-0.70939 -18.00037,0.63797 -38.82438,19.32982 -38.82438,19.32982 l -5.11447,6.04917 -5.47506,-5.64934 c 0,0 -3.67854,-5.17966 -10.24258,-10.20232 -0.36215,4.29384 -0.81839,8.20372 -1.43649,11.33951 -0.80227,4.50777 -4.80513,7.40954 -8.87532,6.43393 -4.0702,-0.97561 -6.61992,-5.44801 -5.65337,-9.9164 0.53903,-2.73474 1.07492,-8.71842 1.5203,-15.46687 -3.42238,-1.04973 -7.14604,-1.69824 -11.14697,-1.69824 -21.60259,0 -43.61139,21.86858 -43.61139,21.86858 l -5.33862,6.1631 -5.41464,-6.08355 c 0,0 -20.12553,-20.92058 -38.26888,-20.92058 -18.14335,0 -34.85403,20.4455 -34.85403,20.4455 l -5.38735,7.081 -5.77327,-6.70482 c 0,0 -14.58741,-16.79389 -38.1266,-20.6755 -0.53856,7.16169 -0.31774,15.49023 -4.13657,21.91587 -7.2432,11.19683 -14.98786,17.52499 -25.64587,19.43515 -8.93332,1.53678 -17.74516,-1.85716 -22.15946,-9.6993 -4.4143,-7.84216 -2.85798,-18.81422 3.71696,-27.2879 6.38717,-8.23169 17.20769,-15.30203 33.66312,-20.82384 0.24004,-11.30901 0.30206,-23.73603 0.0897,-35.55336 -0.47167,-26.24265 -1.59243,-49.26827 -1.59243,-49.26827 -0.2991,-4.87074 3.27865,-8.96237 7.7029,-8.80933 z m 124.35924,1.78636 c 0.60136,-0.009 1.20947,0.009 1.82048,0.0537 5.55027,0.40554 11.36006,3.12454 15.8911,8.1537 5.54335,-4.53729 12.35474,-6.56275 19.00385,-5.64073 8.51348,1.18055 16.86414,7.97393 19.77961,18.83109 l 0.43075,1.60366 -0.16958,1.6617 c -1.85695,18.22858 -1.80192,27.9727 -1.07981,32.63841 0.72211,4.6657 0.96241,4.1139 3.34468,6.8295 2.96529,3.26008 2.92943,8.56877 -0.0795,11.77976 -3.00901,3.21099 -7.82098,3.07555 -10.67757,-0.30053 -2.32894,-2.65475 -6.13848,-7.74066 -7.34426,-15.53136 -1.14806,-7.4178 -0.87192,-17.88179 0.80303,-35.07829 -1.42403,-4.11927 -3.74228,-5.61912 -6.87451,-6.05346 -3.26601,-0.45289 -7.16206,0.99197 -9.77676,4.00268 -1.14936,2.30999 -3.55886,13.48111 -3.86898,23.58401 -0.15993,5.21025 -0.007,10.28865 0.36449,14.08248 0.18582,1.89691 0.43341,3.48007 0.65294,4.45412 0.14818,0.6599 0.25767,0.8408 0.14619,0.66209 2.30248,3.68663 1.52134,8.72541 -1.76092,11.35892 -3.28227,2.63352 -7.86954,1.90209 -10.34113,-1.64886 -1.76963,-2.49425 -2.10866,-4.3379 -2.57087,-6.38882 -0.46222,-2.05092 -0.77283,-4.24712 -1.00965,-6.66397 -0.47363,-4.83372 -0.6216,-10.51478 -0.44049,-16.41487 0.2472,-8.05296 0.76135,-16.07352 2.74435,-23.25512 -2.47875,-5.94753 -5.41421,-6.59729 -9.33236,-6.18029 -4.2338,0.45061 -8.51925,4.70514 -8.69499,5.03236 -2.83071,9.96769 -3.61704,20.17355 -3.27255,28.47452 0.34996,8.43262 2.41325,15.51922 2.68198,16.03653 2.15202,3.96489 0.93433,9.10572 -2.70101,11.40318 -3.63534,2.29744 -8.2725,0.85673 -10.28594,-3.19575 -3.05288,-5.87685 -4.22748,-13.3414 -4.64863,-23.48943 -0.41846,-10.08305 0.48291,-22.2028 4.02882,-34.51077 -0.37093,-0.92963 -0.68296,-1.7734 -1.09151,-3.10413 -2.43139,-7.61761 5.47727,-14.15719 11.4257,-9.44779 3.34568,-1.90967 7.08956,-3.20188 11.11969,-3.63079 0.58745,-0.0625 1.18208,-0.0985 1.78344,-0.10753 z m -76.07387,3.60715 c 0.80453,-0.009 1.60518,0.0126 2.40326,0.0623 7.08665,0.44201 13.75321,3.29579 19.56129,7.24223 5.19661,-7.81321 16.23834,-1.06925 12.99084,7.93443 -1.3687,3.93495 -1.83473,6.63684 -1.87115,6.8424 -0.82554,13.52982 -0.87352,9.35177 -0.2027,27.51575 0.49495,1.60616 1.47271,4.76618 2.70731,8.85449 3.01079,9.57118 -9.24025,15.55382 -13.64183,6.66182 -6.93482,5.26234 -15.41913,7.95236 -23.88638,7.08101 -6.45105,-0.66386 -13.04703,-3.81546 -17.72718,-9.91857 -4.67814,-6.10051 -7.20501,-14.66807 -7.28774,-25.10813 -2e-5,-0.003 3e-5,-0.005 0,-0.009 l 0,-0.004 c -0.10097,-11.31548 2.10171,-20.28379 6.67571,-26.76552 4.57585,-6.48433 11.37737,-9.71151 17.85582,-10.27112 0.80981,-0.0699 1.61822,-0.10929 2.42275,-0.11823 z m 59.60777,2.22491 c -0.28905,0.0295 -0.3379,0.11169 -0.58084,0.15692 0.25431,-0.0645 0.54238,-0.0842 0.83033,-0.12253 0.005,-0.004 0.0106,-0.009 0.0156,-0.0129 -0.0886,0.004 -0.17685,-0.0303 -0.26507,-0.0215 z m -1.95691,0.52667 c -0.757,0.31813 -1.15885,0.60819 -0.96482,0.48367 0.10635,-0.0682 0.56995,-0.29081 0.96482,-0.48367 z m -57.81848,13.78368 c -0.37216,-0.002 -0.73482,0.01 -1.0876,0.0408 -3.25105,0.28082 -5.35696,1.32767 -7.20977,3.95323 -1.8528,2.62557 -3.60074,7.60157 -3.5201,16.47292 l 0,0.004 0,0.007 c 0.0592,7.66468 1.7817,12.03838 3.74814,14.6027 1.96644,2.56433 4.41532,3.80335 7.68925,4.14027 6.03908,0.62146 14.12106,-3.43294 18.37623,-8.89318 -0.39467,-10.9249 -0.34522,-15.60671 0.11695,-22.3845 -4.92436,-4.2537 -12.53063,-7.90492 -18.1131,-7.94302 z m 178.63813,0.98024 c -0.5587,-0.0164 -1.11766,-0.0111 -1.6743,0.0129 -5.62031,0.24211 -11.00493,2.4743 -13.84649,5.29678 0.32756,6.74054 0.59151,14.94274 0.77964,22.97351 7.35655,12.03944 15.53003,15.2165 21.28237,14.22866 5.87321,-1.00861 10.89547,-5.95323 11.95975,-17.30268 0.77005,-8.21169 -0.7922,-13.41353 -3.21603,-17.10921 -2.42385,-3.69569 -6.01868,-6.12243 -10.32055,-7.35187 -1.61321,-0.46104 -3.2883,-0.69889 -4.96439,-0.74809 z m 80.58996,0 c -0.5587,-0.0164 -1.11766,-0.0111 -1.6743,0.0129 -5.62032,0.24211 -11.00493,2.4743 -13.84649,5.29678 0.32756,6.74054 0.59151,14.94274 0.77964,22.97351 7.35655,12.03944 15.53003,15.2165 21.28237,14.22866 5.87322,-1.00861 10.89547,-5.95323 11.95975,-17.30268 0.77004,-8.21169 -0.79023,-13.41353 -3.21408,-17.10921 -2.42386,-3.69569 -6.02063,-6.12243 -10.3225,-7.35187 -1.61321,-0.46104 -3.28829,-0.69889 -4.96439,-0.74809 z m -314.18332,88.42662 c -11.47717,4.56197 -18.48141,9.76537 -21.6527,13.85246 -3.7285,4.80525 -3.01447,6.70717 -2.37207,7.84844 0.64241,1.14127 2.78497,2.8419 7.13376,2.09378 4.07515,-0.70103 8.74773,-2.9451 14.61918,-10.70289 2.81251,-2.83723 1.96443,-8.07629 2.27183,-13.09179 z"
       id="path4147"
       inkscape:connector-curvature="0"
       sodipodi:nodetypes="ssssscccccccsccscsccccccccssssccccsccccccccsssscccsccscscccsscscsscscccscccscccccsccscccccsccscccsccccccsscsccccccscccscscscscscccscssscscscscscccsccccccccccsscccsccccccccccccccscccssccccccccssssccccccsssscccssscc"
       inkscape:export-xdpi="300"
       inkscape:export-ydpi="300">
      <title
         id="title4305">circle</title>
    </path>
  </g>
</svg>
