<?xml version="1.0" encoding="UTF-8" standalone="no"?>
<!-- Created with Inkscape (http://www.inkscape.org/) -->

<svg
   xmlns:dc="http://purl.org/dc/elements/1.1/"
   xmlns:cc="http://creativecommons.org/ns#"
   xmlns:rdf="http://www.w3.org/1999/02/22-rdf-syntax-ns#"
   xmlns:svg="http://www.w3.org/2000/svg"
   xmlns="http://www.w3.org/2000/svg"
   xmlns:sodipodi="http://sodipodi.sourceforge.net/DTD/sodipodi-0.dtd"
   xmlns:inkscape="http://www.inkscape.org/namespaces/inkscape"
   width="210mm"
   height="297mm"
   viewBox="0 0 744.09448819 1052.3622047"
   id="svg6953"
   version="1.1"
   inkscape:version="0.91 r13725"
   sodipodi:docname="Kabelsalat_Level1.svg">
  <defs
     id="defs6955" />
  <sodipodi:namedview
     id="base"
     pagecolor="#ffffff"
     bordercolor="#666666"
     borderopacity="1.0"
     inkscape:pageopacity="0.0"
     inkscape:pageshadow="2"
     inkscape:zoom="0.75195312"
     inkscape:cx="375"
     inkscape:cy="745.48209"
     inkscape:document-units="px"
     inkscape:current-layer="layer1"
     showgrid="false"
     inkscape:window-width="1366"
     inkscape:window-height="705"
     inkscape:window-x="-8"
     inkscape:window-y="-8"
     inkscape:window-maximized="1" />
  <metadata
     id="metadata6958">
    <rdf:RDF>
      <cc:Work
         rdf:about="">
        <dc:format>image/svg+xml</dc:format>
        <dc:type
           rdf:resource="http://purl.org/dc/dcmitype/StillImage" />
        <dc:title></dc:title>
      </cc:Work>
    </rdf:RDF>
  </metadata>
  <g
     inkscape:label="Ebene 1"
     inkscape:groupmode="layer"
     id="layer1">
    <g
       id="g7537"
       transform="translate(14.628573,-549.23636)"
       style="stroke:#000000;stroke-opacity:1;stroke-width:8;stroke-miterlimit:4;stroke-dasharray:none;stroke-linecap:round">
      <g
         id="g7519"
         style="stroke:#000000;stroke-opacity:1;stroke-width:8;stroke-miterlimit:4;stroke-dasharray:none;stroke-linecap:round">
        <path
           style="color:#000000;clip-rule:nonzero;display:inline;overflow:visible;visibility:visible;opacity:1;isolation:auto;mix-blend-mode:normal;color-interpolation:sRGB;color-interpolation-filters:linearRGB;solid-color:#000000;solid-opacity:1;fill:none;fill-opacity:1;fill-rule:evenodd;stroke:#000000;stroke-width:8;stroke-linecap:round;stroke-linejoin:miter;stroke-miterlimit:4;stroke-dasharray:none;stroke-dashoffset:0;stroke-opacity:1;color-rendering:auto;image-rendering:auto;shape-rendering:auto;text-rendering:auto;enable-background:accumulate"
           d="m 93.090909,636.11285 c 0,0 22.002331,75.76641 51.864931,97.08052 43.12435,30.77954 104.11664,29.55713 156.92468,25.26754 50.29935,-4.08581 96.7235,-66.49995 143.62597,-47.87533 31.3361,12.44333 53.12629,55.79642 47.87533,89.1013 -7.17761,45.52489 -60.69713,71.26252 -99.74026,95.75065 -38.85484,24.37003 -101.63718,84.68585 -128.9974,47.87532 -24.54021,-33.01648 33.37212,-100.15705 74.47272,-98.41039 43.98907,1.86941 55.85455,130.32728 55.85455,130.32728"
           id="path7511"
           inkscape:connector-curvature="0"
           sodipodi:nodetypes="csssssssc" />
        <path
           style="color:#000000;clip-rule:nonzero;display:inline;overflow:visible;visibility:visible;opacity:1;isolation:auto;mix-blend-mode:normal;color-interpolation:sRGB;color-interpolation-filters:linearRGB;solid-color:#000000;solid-opacity:1;fill:none;fill-opacity:1;fill-rule:evenodd;stroke:#000000;stroke-width:8;stroke-linecap:round;stroke-linejoin:miter;stroke-miterlimit:4;stroke-dasharray:none;stroke-dashoffset:0;stroke-opacity:1;color-rendering:auto;image-rendering:auto;shape-rendering:auto;text-rendering:auto;enable-background:accumulate"
           d="m 642.32727,673.34922 c 0,0 -24.77167,74.2817 -47.87532,105.05974 -30.19287,40.22209 -64.35557,93.10948 -114.36883,98.41039 -49.71123,5.2689 -82.57517,-62.33001 -131.65715,-71.81299 -48.20969,-9.31444 -104.0927,-7.82509 -146.28571,17.28831 -47.55883,28.30715 -71.81299,156.92468 -71.81299,156.92468"
           id="path7513"
           inkscape:connector-curvature="0"
           sodipodi:nodetypes="cssssc" />
        <path
           style="color:#000000;clip-rule:nonzero;display:inline;overflow:visible;visibility:visible;opacity:1;isolation:auto;mix-blend-mode:normal;color-interpolation:sRGB;color-interpolation-filters:linearRGB;solid-color:#000000;solid-opacity:1;fill:none;fill-opacity:1;fill-rule:evenodd;stroke:#000000;stroke-width:8;stroke-linecap:round;stroke-linejoin:miter;stroke-miterlimit:4;stroke-dasharray:none;stroke-dashoffset:0;stroke-opacity:1;color-rendering:auto;image-rendering:auto;shape-rendering:auto;text-rendering:auto;enable-background:accumulate"
           d="m 305.87013,620.15441 c 0,0 -66.30041,47.63988 -90.43117,79.79221 -34.99572,46.62902 -19.15576,139.84264 -74.47273,158.25455 -30.48143,10.14555 -76.407357,-14.29174 -85.111685,-45.21559 -9.207691,-32.71215 17.908457,-86.42096 51.864935,-87.77143 29.24745,-1.16319 23.65148,60.23547 50.53507,71.81299 48.13561,20.72979 103.41836,-17.67016 155.5948,-22.60779 39.75786,-3.76242 80.35093,-12.20523 119.68831,-5.31948 61.87053,10.83003 159.49522,10.75039 174.21299,71.81298 12.15641,50.43576 -94.42078,128.99741 -94.42078,128.99741"
           id="path7515"
           inkscape:connector-curvature="0"
           sodipodi:nodetypes="cssssssssc" />
        <path
           style="color:#000000;clip-rule:nonzero;display:inline;overflow:visible;visibility:visible;opacity:1;isolation:auto;mix-blend-mode:normal;color-interpolation:sRGB;color-interpolation-filters:linearRGB;solid-color:#000000;solid-opacity:1;fill:none;fill-opacity:1;fill-rule:evenodd;stroke:#000000;stroke-width:8;stroke-linecap:round;stroke-linejoin:miter;stroke-miterlimit:4;stroke-dasharray:none;stroke-dashoffset:0;stroke-opacity:1;color-rendering:auto;image-rendering:auto;shape-rendering:auto;text-rendering:auto;enable-background:accumulate"
           d="m 464.12468,660.05052 c 0,0 -95.76364,198.50662 -174.21299,174.21298 -46.09394,-14.27405 -53.96589,-102.55486 -26.5974,-142.2961 19.67719,-28.57285 35.90649,-9.30909 35.90649,-9.30909 43.55044,64.23606 -67.55532,113.1891 -45.21559,187.51169 11.5409,38.39567 78.99091,-17.42816 81.12208,22.60779 1.23933,23.28195 -30.67755,37.57805 -62.90427,46.05366 -32.22671,8.47562 -28.85677,41.71776 -28.85677,41.71776"
           id="path7517"
           inkscape:connector-curvature="0"
           sodipodi:nodetypes="cssssssc" />
      </g>
    </g>
  </g>
</svg>
